<svg width="100" height="100" viewBox="0 0 100 100" fill="none" xmlns="http://www.w3.org/2000/svg">
<path d="M65.383 53.5519C63.8014 55.0248 63.5468 57.3243 64.7719 59.0662C65.6495 60.3144 65.9281 61.8484 65.5327 63.2907C65.0115 65.2074 65.0205 67.2157 65.5537 69.1296C64.1219 70.5109 64.1699 72.705 65.6615 74.0337C67.1532 75.3596 69.5225 75.3152 70.9543 73.9366C72.389 72.5552 72.3411 70.3612 70.8494 69.0325C70.1785 68.4334 69.2889 68.0894 68.3603 68.0644C68.0488 66.7136 68.0728 65.3101 68.4412 63.9675C69.0403 61.7707 68.6209 59.4435 67.285 57.549C66.8297 56.9027 66.9256 56.0483 67.5126 55.5019C69.7382 53.4271 70.1934 50.2344 68.6239 47.6964C68.2135 47.0335 67.297 46.8032 66.5781 47.1832C65.8622 47.5633 65.6136 48.4065 66.024 49.075C66.9196 50.5285 66.659 52.3592 65.383 53.5519Z" fill="#1DCC00"/>
<path d="M33.8751 62.4566C35.0436 60.5556 35.4103 58.2329 34.8864 56.0323C34.5667 54.6947 34.5432 53.2905 34.8183 51.9363C36.6259 51.8808 38.0485 50.2851 37.9987 48.3731C37.9463 46.4555 36.4399 44.9486 34.6322 45.0013C32.8246 45.0568 31.3994 46.6525 31.4518 48.5673C31.4753 49.4304 31.8002 50.249 32.3635 50.8706C31.8945 52.7827 31.8867 54.7946 32.3425 56.7122C32.6883 58.158 32.4473 59.687 31.6771 60.9386C30.6029 62.6813 30.8256 64.9819 32.2115 66.4554C33.3249 67.6487 33.5529 69.4803 32.7669 70.9316C32.4132 71.6004 32.6386 72.4468 33.2673 72.8215C33.8908 73.1933 34.6794 72.9658 35.0409 72.3109C36.4111 69.7717 36.0155 66.5775 34.069 64.5018C33.5581 63.9579 33.4743 63.1032 33.8751 62.4566Z" fill="#1DCC00"/>
<path d="M45.6468 79.1383C47.1337 76.4818 50.5125 75.5276 53.1894 77.0016C54.0965 77.5021 54.8428 78.2418 55.3449 79.1383C59.087 85.8153 67.5756 88.2188 74.3082 84.5091C76.1668 83.4888 77.7646 82.0533 78.9797 80.3263C81.7898 76.3251 83.6733 71.7546 84.4917 66.9476C86.4085 55.6699 84.5194 44.0842 79.1128 33.9807C75.501 27.2295 73.8116 19.6312 74.225 12H77.0045C76.5884 19.1802 78.1641 26.3357 81.5678 32.6882C87.2602 43.3252 89.2519 55.5269 87.2324 67.4014C86.3447 72.6126 84.3058 77.5598 81.2599 81.8966C75.9837 89.4041 65.5616 91.2548 57.9857 86.0216C55.8941 84.5806 54.1631 82.6803 52.9259 80.4721C52.1825 79.1438 50.4931 78.6653 49.1532 79.4023C48.701 79.6498 48.3265 80.0211 48.0741 80.4721C43.5913 88.4718 33.4133 91.3566 25.3409 86.9126C23.1133 85.6833 21.1965 83.9701 19.7401 81.8966C16.6942 77.5598 14.6553 72.6099 13.7676 67.4014C11.7481 55.5269 13.7398 43.3252 19.4322 32.6882C22.8276 26.3357 24.406 19.1802 23.9899 12H26.7695C27.1801 19.6312 25.4907 27.2295 21.8789 33.9779C16.4723 44.0814 14.5831 55.6699 16.5 66.9449C17.3183 71.7519 19.2019 76.3223 22.012 80.3236C26.4144 86.5908 35.1055 88.1308 41.4275 83.7666C43.1724 82.5648 44.6149 80.9808 45.6468 79.1383Z" fill="#1DCC00"/>
<path d="M67.0867 39.0079C63.6155 39.1398 60.4079 40.9329 58.4251 43.843C51.1916 54.4533 51.1916 68.5461 58.4251 79.1564C61.9156 84.2777 68.8086 85.5377 73.8204 81.9738C74.8942 81.2077 75.8279 80.2536 76.5749 79.1564C83.8084 68.5461 83.8084 54.4533 76.5749 43.843C74.4246 40.6832 70.849 38.8647 67.0867 39.0079ZM67.1883 41.8141C70.0169 41.7046 72.7054 43.0741 74.323 45.4481C80.9001 55.0959 80.9001 67.9035 74.323 77.5484C71.7003 81.3985 66.5182 82.3471 62.7504 79.6671C61.943 79.0918 61.24 78.3763 60.677 77.5484C54.0999 67.9007 54.0999 55.0931 60.677 45.4481C62.1682 43.2593 64.5794 41.9123 67.1883 41.8141Z" fill="#1DCC00"/>
<path d="M33.0812 39.0082C29.6127 39.1428 26.4079 40.9332 24.4251 43.8432C17.1916 54.4535 17.1916 68.5462 24.4251 79.1564C27.9156 84.2777 34.8086 85.5377 39.8204 81.9738C40.8942 81.2077 41.8279 80.2536 42.5749 79.1564C49.8084 68.5462 49.8084 54.4535 42.5749 43.8432C40.4218 40.6835 36.8463 38.8622 33.0812 39.0082ZM33.1883 41.8143C36.0169 41.7049 38.7054 43.0743 40.323 45.4484C46.9001 55.0961 46.9001 67.9036 40.323 77.5485C37.7003 81.3986 32.5182 82.3471 28.7504 79.6671C27.943 79.0919 27.24 78.3763 26.677 77.5485C20.0999 67.9008 20.0999 55.0933 26.677 45.4484C28.1682 43.2595 30.5794 41.9126 33.1883 41.8143Z" fill="#1DCC00"/>
</svg>
