<svg width="100" height="100" viewBox="0 0 100 100" fill="none" xmlns="http://www.w3.org/2000/svg">
<path d="M48.2527 58.5786V41.4223C48.2527 39.8635 47.592 38.3635 46.4035 37.22L38.4543 29.5932C37.8041 28.961 37.86 27.9786 38.5696 27.4022C39.2793 26.832 40.3734 26.8753 41.0201 27.4921L50.0005 36.1074L58.9774 27.4921C59.6381 26.866 60.7463 26.832 61.4489 27.4208C62.1445 28.0034 62.1865 28.9672 61.5433 29.5932L53.6046 37.22C52.4091 38.3635 51.7484 39.8665 51.7484 41.4223V58.5786C51.7484 60.1374 52.4091 61.6374 53.6046 62.784L61.5433 70.4077C62.1935 71.0399 62.1445 72.0223 61.4279 72.5956C60.7253 73.1658 59.6311 73.1286 58.9774 72.5119L50.0005 63.8935L41.0236 72.5119C40.3664 73.1348 39.2618 73.1658 38.5522 72.5801C37.8565 72.0006 37.8146 71.0337 38.4578 70.4077L46.4035 62.784C47.592 61.6405 48.2527 60.1374 48.2527 58.5786Z" fill="#767676"/>
<path d="M64.1617 7.00501C58.9592 7.09407 54.0959 9.30834 51.0086 12.9906C50.4003 13.7215 49.2255 13.8782 48.3934 13.3376C48.2431 13.2424 48.1137 13.1227 47.9983 12.9906C42.5302 6.4522 32.0553 5.04871 24.6117 9.85807C23.0489 10.8685 21.6958 12.1092 20.6155 13.525C3.79485 35.6001 3.79485 64.4011 20.6155 86.4762C25.7585 93.2204 36.1425 95.0293 43.8273 90.5178C45.4391 89.5688 46.8516 88.3834 47.9983 87.0075C48.6137 86.2766 49.7815 86.12 50.6136 86.6605C50.7639 86.7557 50.9003 86.8755 51.0086 87.0075C56.4838 93.5459 66.9622 94.9433 74.3953 90.1339C75.9581 89.1266 77.3042 87.892 78.3845 86.4762C95.2052 64.4011 95.2052 35.6001 78.3845 13.525C75.2169 9.36669 69.8571 6.9098 64.1617 7.00501ZM64.2386 10.0761C68.7453 10.0024 72.9793 11.9464 75.4861 15.2356C75.8742 15.7454 76.2588 16.2613 76.6259 16.7834C75.9581 16.9984 75.3638 17.3608 74.8848 17.8276C73.3499 19.3386 70.7731 19.6211 68.8607 18.4879C68.0425 18.0395 66.9622 18.2606 66.4552 18.9793C65.9623 19.6641 66.1685 20.564 66.9132 21.0369C70.2802 23.0209 74.7939 22.5233 77.4895 19.873C77.7762 19.5935 78.2552 19.5382 78.6083 19.7409C81.8039 24.8144 84.1814 30.2533 85.6708 35.9011C81.6641 34.6604 77.1958 35.4527 74.0492 37.971C72.1647 39.482 69.2418 39.3623 67.5286 37.7069C67.3643 37.5564 67.2209 37.3937 67.0915 37.2217C66.5601 36.5153 65.4728 36.3219 64.6686 36.7887C63.8645 37.2555 63.6442 38.2106 64.1757 38.9169C66.6545 42.1969 71.6927 43.0875 75.4302 40.907C75.7728 40.7105 76.098 40.4863 76.3987 40.2406C79.2202 37.9864 83.4472 37.7684 86.5379 39.7247C87.814 46.4504 87.828 53.3174 86.5798 60.0462C83.4122 57.4972 78.8985 56.7048 74.8533 57.9824C72.4548 58.7441 69.8082 57.6507 68.9481 55.5409C68.8677 55.3474 68.8047 55.1509 68.7558 54.9482C68.5705 54.1159 67.651 53.5754 66.7 53.7351C65.749 53.8948 65.1371 54.7055 65.3189 55.5409C66.179 59.4044 70.448 61.9227 74.8463 61.1641C75.2484 61.0965 75.6504 60.9952 76.042 60.8723C79.6817 59.7207 83.7374 61.0013 85.7128 63.925C84.1884 69.7909 81.706 75.4294 78.3461 80.6718C77.042 80.1681 75.6504 79.8795 74.2205 79.8211C71.6717 79.7198 69.6998 77.8218 69.8221 75.5799C69.8291 75.3772 69.8571 75.1714 69.9026 74.9687C70.0459 74.1303 69.3851 73.3503 68.4271 73.2244C67.5461 73.1107 66.707 73.599 66.4797 74.3576C65.5916 78.2149 68.4341 81.974 72.822 82.7571C73.224 82.8308 73.6401 82.8738 74.0526 82.8922C74.8987 82.9291 75.7379 83.0796 76.5315 83.3406C76.1889 83.8197 75.8357 84.2957 75.4721 84.7625C71.4095 90.0971 63.1862 91.5282 57.1166 87.9565C55.8405 87.2102 54.7252 86.2705 53.8197 85.1894C52.0645 83.0918 48.7046 82.6435 46.3201 84.1852C45.8831 84.4677 45.495 84.8055 45.1733 85.1894C40.845 90.3612 32.5623 91.4637 26.6745 87.6586C25.4368 86.8632 24.374 85.8804 23.5209 84.7656C23.1643 84.2988 22.8111 83.8228 22.4685 83.3437C23.2621 83.0796 24.0943 82.9291 24.9404 82.8953C29.4191 82.7141 32.8804 79.3789 32.6776 75.4448C32.6567 75.0793 32.6042 74.72 32.5203 74.3576C32.328 73.5253 31.4085 72.991 30.4575 73.1568C29.5135 73.3257 28.9016 74.1334 29.0904 74.9687C29.5974 77.1646 27.9786 79.3052 25.4718 79.7474C25.248 79.7873 25.0138 79.8119 24.776 79.8211C23.3565 79.8825 21.9545 80.1681 20.6504 80.6718C17.2905 75.4294 14.8116 69.7909 13.2838 63.925C15.2557 61.0013 19.3148 59.7207 22.9545 60.8723C27.1675 62.2113 31.8245 60.295 33.3489 56.5881C33.4853 56.2472 33.5937 55.8941 33.6776 55.5378C33.8629 54.7055 33.2475 53.8948 32.2965 53.732C31.3456 53.5692 30.426 54.1098 30.2407 54.9451C29.7478 57.144 27.3248 58.5751 24.818 58.1452C24.5942 58.1053 24.36 58.05 24.1432 57.9793C20.1085 56.7018 15.6018 57.4941 12.4307 60.037C11.1825 53.3082 11.193 46.4442 12.4656 39.7216C15.5598 37.7653 19.7938 37.9833 22.6048 40.2375C25.9158 42.8879 31.0519 42.6791 34.0692 39.7676C34.3489 39.5005 34.6006 39.2118 34.8279 38.9139C35.3278 38.186 35.0516 37.2432 34.2265 36.8071C33.4538 36.3986 32.4504 36.5798 31.9189 37.2156C30.5064 39.0797 27.636 39.5865 25.5138 38.3457C25.3215 38.2321 25.1397 38.1031 24.9613 37.9649C21.8147 35.4466 17.3464 34.6542 13.3327 35.895C14.8291 30.2441 17.2031 24.8083 20.3987 19.7348C20.7623 19.5321 21.2308 19.5874 21.5175 19.8668C24.2201 22.5172 28.7338 23.0147 32.0938 21.0308C32.8979 20.5578 33.1112 19.6027 32.5727 18.8994C32.0343 18.1961 30.947 18.0088 30.1428 18.4818C28.2374 19.6181 25.6641 19.3386 24.1257 17.8245C23.6537 17.3577 23.0524 16.9953 22.3846 16.7804C22.7622 16.2613 23.1363 15.7454 23.5244 15.2356C27.587 9.89799 35.8103 8.46378 41.8799 12.0324C43.156 12.7818 44.2783 13.7246 45.1838 14.8087C46.939 16.9063 50.2989 17.3547 52.6869 15.813C53.1239 15.5304 53.505 15.1926 53.8266 14.8087C56.2775 11.8942 60.12 10.1437 64.2386 10.0761Z" fill="#767676"/>
</svg>
