<svg width="100" height="100" viewBox="0 0 100 100" fill="none" xmlns="http://www.w3.org/2000/svg">
<path d="M31.4203 9.00361C17.1501 9.23493 5.77095 20.9259 6.0035 35.1208C6.00664 35.3709 6.01293 35.6209 6.0255 35.871C7.06568 58.559 20.0538 79.0183 40.2006 89.7027C45.1878 92.5848 51.3032 92.7661 56.4538 90.1841C75.4724 81.5565 89.2021 64.4139 93.41 44.0453C96.584 28.6845 86.6347 13.6706 71.1923 10.5134C64.6809 9.18491 57.9088 10.1571 52.0417 13.2611C50.043 14.3177 47.6295 14.227 45.7189 13.0173C41.4513 10.3165 36.4798 8.91921 31.4203 9.00361ZM31.0872 12.1358C35.6596 11.9826 40.1723 13.2142 44.0313 15.6587C46.8973 17.4718 50.5207 17.6124 53.5218 16.0245C65.9097 9.4725 81.2924 14.1489 87.8791 26.4776C89.375 29.2753 90.324 32.3231 90.6886 35.4709C84.5355 48.084 69.269 53.3481 56.5858 47.2307C54.8668 46.3992 53.2452 45.3801 51.7557 44.1891C39.6443 34.5175 22.5081 34.1643 10.0008 43.3232C9.564 40.81 9.28745 38.2749 9.17118 35.7272C8.60238 23.2704 18.2908 12.711 30.8138 12.1452C30.905 12.142 30.9961 12.1389 31.0872 12.1358ZM29.5725 39.8222C36.9041 39.6471 44.0628 42.0572 49.7853 46.6242C62.1323 56.4772 80.1736 54.511 90.0789 42.2354C90.2737 41.9916 90.4623 41.7509 90.6509 41.5039C90.5692 42.1448 90.4623 42.7856 90.3303 43.4201C86.3236 62.8322 73.2286 79.1683 55.0931 87.3739C50.8632 89.5183 45.8257 89.3682 41.731 86.9769C26.0183 78.6619 14.6958 63.9888 10.6859 46.743C16.0376 42.4167 22.6809 39.9847 29.5725 39.8222Z" fill="#FF0000"/>
</svg>
