<svg width="100" height="100" viewBox="0 0 100 100" fill="none" xmlns="http://www.w3.org/2000/svg">
<path d="M51.7203 19.0009C42.9863 19.0326 34.2774 19.9437 25.7257 21.7278C18.4751 23.2421 12.62 28.6261 10.4514 35.7753C6.4568 48.9211 5.13052 62.7432 6.55423 76.4192C6.84966 79.2287 9.3451 81.2668 12.1234 80.9716C12.5791 80.9208 13.0222 80.8097 13.4465 80.6414C19.9931 78.0383 25.8483 73.9209 30.5406 68.6257C35.0883 63.4956 41.5563 60.521 48.3732 60.429C54.4263 60.3432 60.2186 57.9306 64.5715 53.683C70.524 47.8735 77.1492 42.8165 84.3055 38.6229C86.8481 37.134 89.3372 35.5594 91.7698 33.8991C94.0861 32.3182 94.6989 29.1372 93.1307 26.7944C92.4832 25.8262 91.5215 25.1087 90.4152 24.7659C77.8752 20.8929 64.8323 18.9532 51.7203 19.0009ZM49.1966 22.2072C53.452 22.1088 57.7137 22.2199 61.9598 22.5468C64.0592 26.1182 63.6946 30.642 61.0452 33.8197C56.5289 39.2387 56.5446 47.1593 61.0829 52.5624C57.4749 55.5338 52.9806 57.1814 48.326 57.2512C40.6323 57.3591 33.3346 60.7178 28.2054 66.5082C23.84 71.4384 18.3934 75.2637 12.2994 77.6859C11.3125 78.0764 10.1937 77.5875 9.8071 76.5875C9.7411 76.4224 9.70338 76.2542 9.68452 76.0796C8.30481 62.8289 9.5871 49.4354 13.4528 36.7022C15.2882 30.6642 20.232 26.1214 26.3574 24.8421C33.8751 23.2738 41.5217 22.3913 49.1966 22.2072ZM65.5992 22.8834C73.7015 23.7468 81.7032 25.3944 89.4975 27.8008C90.5127 28.115 91.0847 29.2007 90.7735 30.2261C90.6447 30.6515 90.3775 31.0198 90.0129 31.2674C87.6401 32.8864 85.2106 34.4229 82.7341 35.8737C75.7601 39.9593 69.2763 44.8387 63.4055 50.4195C59.9357 46.1974 59.9546 40.0673 63.4558 35.8673C66.454 32.2578 67.2806 27.2833 65.5992 22.8834Z" fill="#FFB800"/>
<path d="M28.1406 55.444C27.2864 55.1396 26.4675 54.7414 25.7 54.2622C24.8393 53.7182 24.0622 53.0609 23.3878 52.2967C22.7102 51.5261 22.1065 50.6907 21.5959 49.8003C21.1078 48.9487 20.732 48.0389 20.4815 47.0901C20.2439 46.19 20.0898 45.2672 20.0255 44.3282C19.9613 43.4183 20.0191 42.502 20.1893 41.5986C20.3691 40.6661 20.6293 39.7497 20.9665 38.8593C21.3422 37.875 21.8399 36.9392 22.4533 36.0876C22.9318 35.4109 23.4584 34.773 24.0204 34.1708C24.7205 33.4228 25.5137 32.7655 26.3775 32.2215C27.2414 31.6743 28.1534 31.2145 29.104 30.8422C30.1123 30.4504 31.1689 30.1978 32.2447 30.091C33.1599 30.0035 34.0815 29.9776 35 30.0197C36.1239 30.0683 37.2383 30.2561 38.3173 30.5896C39.1651 30.8519 39.6436 31.7553 39.3834 32.6101C39.1233 33.4681 38.2274 33.9474 37.3764 33.6851C36.5607 33.4325 35.7193 33.2901 34.8683 33.2544C34.0944 33.2221 33.3205 33.2415 32.5497 33.3192C31.7662 33.3937 30.9987 33.5782 30.2633 33.8632C29.5022 34.1611 28.7732 34.5302 28.0796 34.9673C27.4469 35.3688 26.8657 35.848 26.3519 36.3952C25.883 36.8906 25.4527 37.4184 25.0577 37.9721C24.6049 38.6035 24.2388 39.2932 23.9626 40.0217C23.6929 40.7308 23.4841 41.4626 23.3396 42.217C23.224 42.8355 23.1855 43.4734 23.2337 44.1048C23.285 44.8301 23.4039 45.5489 23.5869 46.2547C23.7667 46.9282 24.0301 47.5726 24.3769 48.1748C24.7783 48.8775 25.2536 49.538 25.7867 50.1403C26.2555 50.6713 26.8014 51.1343 27.402 51.5132C27.9736 51.8726 28.5805 52.164 29.2132 52.3906C29.7655 52.5882 30.3403 52.708 30.9248 52.7403C31.5317 52.7792 32.1451 52.763 32.7488 52.6918C33.481 52.6043 34.1971 52.4004 34.8619 52.083C35.4431 51.8078 35.9923 51.4711 36.4997 51.076C36.9011 50.7587 37.2543 50.3864 37.5466 49.9622C37.8645 49.4992 38.1374 49.007 38.3558 48.4889C38.5389 48.0583 38.6641 47.6017 38.7219 47.1355C38.7926 46.598 38.815 46.0572 38.7861 45.5197C38.754 45.0211 38.6448 44.5289 38.4554 44.0691C38.2338 43.5252 37.9319 43.0265 37.5562 42.5797C37.1933 42.1458 36.7534 41.7929 36.2588 41.5274C35.7835 41.2683 35.2697 41.0838 34.7399 40.9802C34.2068 40.8765 33.6576 40.9089 33.1374 41.0773C32.5369 41.2748 31.9942 41.6148 31.5574 42.081C31.1785 42.4858 30.9409 43.0071 30.8766 43.5575C30.806 44.2148 31.1078 44.8495 31.6602 45.2024C32.4052 45.6881 32.614 46.6951 32.1323 47.4431C31.657 48.1813 30.6807 48.4015 29.9357 47.932C28.3525 46.9185 27.479 45.0826 27.6846 43.2014C27.8226 41.9483 28.3622 40.7729 29.2228 39.8566C30.0288 38.9953 31.034 38.3542 32.1547 37.9948C33.1888 37.658 34.2935 37.5933 35.3629 37.807C36.201 37.9753 37.0135 38.27 37.7681 38.6747C38.6192 39.1313 39.3738 39.7465 40 40.4912C40.5941 41.1939 41.0726 41.9904 41.4194 42.8452C41.7438 43.6385 41.93 44.4771 41.9814 45.3352C42.0232 46.0799 41.9943 46.8311 41.8979 47.5694C41.7984 48.3238 41.5961 49.0653 41.2974 49.7711C40.9923 50.4932 40.6166 51.1764 40.1734 51.8208C39.6982 52.5169 39.1137 53.1289 38.4522 53.647C37.7585 54.1845 37.0103 54.6475 36.2203 55.0198C35.2376 55.4893 34.1875 55.784 33.1085 55.9103C32.3153 56.0009 31.5157 56.0236 30.7193 55.975C29.8426 55.9168 28.9755 55.7419 28.1406 55.444Z" fill="#FFB800"/>
</svg>
