<svg width="100" height="100" viewBox="0 0 100 100" fill="none" xmlns="http://www.w3.org/2000/svg">
<path d="M65.386 28.0018C60.1383 27.8948 55.6305 32.6979 54.8195 39.2632C53.2651 51.8291 53.9274 64.6688 56.7591 76.8711C57.6648 80.7718 59.9288 83.9283 62.9024 85.4594C70.6304 89.4242 79.1729 90.0786 87.2219 87.3242C92.6353 85.468 95.9502 78.5691 94.7574 71.6361C91.7128 53.9249 82.8595 38.6943 70.4108 29.7425C68.8834 28.639 67.1533 28.036 65.386 28.0018ZM65.3354 32.2788C66.5316 32.3044 67.7075 32.7108 68.7483 33.455C80.3623 41.808 88.6209 56.0163 91.4593 72.5428C92.267 77.2518 90.0198 81.9309 86.3434 83.1926C79.0073 85.7075 71.2184 85.1087 64.1729 81.4989C62.1522 80.4639 60.6147 78.3168 60.0031 75.6693C57.3099 64.0743 56.6781 51.8676 58.1547 39.9261C58.7055 35.4609 61.7704 32.2061 65.3354 32.2788Z" fill="#04C3FF"/>
<path d="M33.951 28.0017C32.0725 27.9633 30.221 28.5621 28.5857 29.7383C16.1352 38.6905 7.28645 53.9216 4.24225 71.6335C3.04958 78.5711 6.37083 85.4703 11.7835 87.3223C19.8315 90.0811 28.3694 89.4224 36.0931 85.4575C39.0697 83.9305 41.3301 80.7696 42.2356 76.8688C45.0703 64.666 45.7359 51.8258 44.1817 39.2594C43.3944 32.8564 39.0731 28.1044 33.951 28.0017ZM33.9003 32.279C37.377 32.3474 40.3097 35.5724 40.8503 39.9223C42.3268 51.8643 41.695 64.0714 39.0022 75.6669C38.3872 78.3145 36.8499 80.4617 34.8329 81.4968C27.7883 85.111 20.0038 85.7055 12.6653 83.1905C8.99268 81.9288 6.74248 77.2452 7.54999 72.5403C10.3881 56.0174 18.6456 41.8043 30.2581 33.4509C31.3663 32.6596 32.6232 32.2533 33.9003 32.279Z" fill="#04C3FF"/>
<path d="M75.4957 77.3159C74.6265 77.6785 73.7171 77.8977 72.7942 77.9654C71.9619 78.0292 71.1263 78.0053 70.2973 77.8897C69.1731 77.7383 68.0724 77.3637 67.0454 76.7978C66.2165 76.3355 65.438 75.7657 64.7131 75.1042C64.0184 74.4706 63.411 73.7094 62.9109 72.8606C62.4478 72.0676 62.0552 71.2188 61.7364 70.3301C61.4243 69.4654 61.2162 68.5568 61.1088 67.6243C61.0048 66.7118 60.9746 65.7912 61.0215 64.8747C61.0752 63.8226 61.2732 62.7905 61.6088 61.8142C61.9713 60.7582 62.4747 59.7818 63.0955 58.9091C63.7466 57.9966 64.5386 57.2434 65.4279 56.6775C66.2165 56.1754 67.0656 55.8168 67.9448 55.6095C69.059 55.3505 70.2135 55.4262 71.2941 55.8407C72.4619 56.283 73.5157 57.076 74.358 58.1281C75.2574 59.2558 75.8212 60.7024 75.9655 62.2486C76.1803 64.5638 75.2675 66.8194 73.613 68.0746C72.8277 68.6564 71.7907 68.3695 71.3041 67.437C70.8175 66.5165 71.0457 65.3051 71.8142 64.7113C72.3881 64.2769 72.7069 63.4879 72.6297 62.6869C72.566 62.0015 72.3143 61.3639 71.9183 60.8658C71.4652 60.2959 70.8981 59.8695 70.2705 59.6304C69.7302 59.4232 69.153 59.3794 68.5959 59.5109C68.0422 59.6424 67.5086 59.8695 67.0085 60.1803C66.4951 60.5111 66.032 60.9494 65.6561 61.4795C65.2634 62.0254 64.948 62.6471 64.7164 63.3086C64.5184 63.8824 64.4043 64.4841 64.3741 65.0978C64.3406 65.7593 64.3607 66.4288 64.4379 67.0824C64.505 67.6602 64.6325 68.2181 64.8238 68.7561C65.052 69.3937 65.3339 70.0034 65.6662 70.5692C65.9682 71.0873 66.3373 71.5496 66.7602 71.9321C67.2904 72.4223 67.8643 72.8367 68.4717 73.1754C69.1698 73.566 69.9148 73.817 70.6799 73.9206C71.3108 74.0083 71.9485 74.0282 72.5827 73.9844C73.1935 73.9366 73.7942 73.7931 74.3715 73.554C75.0326 73.2791 75.6702 72.9124 76.2642 72.4741C76.8918 72.0118 77.4589 71.442 77.9489 70.7884C78.5093 70.0392 79.0027 69.2303 79.4221 68.3695C79.7812 67.6243 80.0598 66.8273 80.2477 66.0024C80.4423 65.1377 80.5665 64.253 80.6202 63.3564C80.6672 62.5793 80.6303 61.7983 80.5061 61.0291C80.3585 60.1126 80.1403 59.208 79.8551 58.3273C79.5664 57.4347 79.1839 56.5899 78.714 55.8128C78.2979 55.1274 77.8449 54.4778 77.3616 53.8681C76.8246 53.1906 76.2172 52.6049 75.5527 52.1107C74.8312 51.5727 74.0661 51.1224 73.2707 50.7558C72.5022 50.4011 71.6968 50.174 70.8813 50.0784C70.0759 49.9947 69.2671 49.9668 68.4583 50.0066C67.569 50.0465 66.6897 50.2258 65.8407 50.5366C64.948 50.8435 64.0184 50.2417 63.7566 49.1817C63.5016 48.1416 63.9882 47.0537 64.8574 46.723C65.9816 46.3125 67.1495 46.0774 68.3241 46.0216C69.2839 45.9738 70.247 46.0057 71.2035 46.1133C72.3277 46.2368 73.4318 46.5476 74.4856 47.0338C75.4789 47.4881 76.432 48.058 77.3347 48.7274C78.2408 49.4009 79.0664 50.2059 79.8014 51.1304C80.392 51.8756 80.939 52.6606 81.4391 53.4855C82.0767 54.5455 82.6002 55.6892 82.9895 56.9007C83.3419 57.9926 83.6171 59.1203 83.8016 60.272C83.9829 61.3758 84.0399 62.5076 83.9728 63.6353C83.9057 64.779 83.7479 65.9148 83.4962 67.0306C83.2345 68.1982 82.8452 69.318 82.3317 70.362C81.7981 71.4619 81.1706 72.494 80.4591 73.4384C79.7544 74.3749 78.9389 75.1919 78.0429 75.8534C77.2441 76.4551 76.3884 76.9413 75.4957 77.3159Z" fill="#04C3FF"/>
<path d="M23.506 77.3133C22.6135 76.9387 21.7578 76.4485 20.9558 75.8547C20.0566 75.1932 19.2445 74.3762 18.5399 73.4397C17.8285 72.4952 17.201 71.4631 16.6641 70.3671C16.1574 69.319 15.7615 68.1992 15.5031 67.0315C15.2514 65.9237 15.0937 64.7839 15.0266 63.6362C14.9595 62.5123 15.0199 61.3805 15.2011 60.2727C15.389 59.1249 15.6608 57.9971 16.0131 56.9012C16.4024 55.6857 16.9258 54.542 17.5634 53.4899C18.0634 52.661 18.6137 51.8759 19.2009 51.1306C19.9358 50.2101 20.7646 49.4051 21.6672 48.7276C22.5699 48.0581 23.5228 47.4882 24.5161 47.0339C25.5663 46.5477 26.6737 46.2408 27.7978 46.1133C28.7575 46.0057 29.7171 45.9738 30.6768 46.0216C31.8546 46.0814 33.019 46.3165 34.1431 46.723C35.0256 47.0578 35.5121 48.1776 35.2303 49.2297C34.9518 50.2579 34.0357 50.8397 33.1599 50.5368C32.311 50.226 31.4285 50.0467 30.5392 50.0068C29.7306 49.963 28.9219 49.9909 28.1165 50.0825C27.2978 50.1742 26.4925 50.4014 25.7241 50.756C24.9288 51.1227 24.1637 51.573 23.4423 52.111C22.7813 52.6052 22.1739 53.191 21.6337 53.8685C21.1471 54.4822 20.6975 55.1278 20.2814 55.8132C19.8116 56.5903 19.4291 57.4392 19.1405 58.3319C18.8553 59.2086 18.6405 60.1093 18.4895 61.0338C18.3654 61.799 18.3285 62.5801 18.3754 63.3572C18.4291 64.2539 18.5533 65.1386 18.7479 66.0034C18.9325 66.8323 19.211 67.6253 19.5734 68.3706C19.9928 69.2353 20.4861 70.0443 21.0464 70.7896C21.5363 71.4431 22.1034 72.013 22.7309 72.4793C23.3282 72.9137 23.9624 73.2803 24.6234 73.5593C25.2006 73.8024 25.8012 73.9458 26.4119 73.9857C27.0461 74.0335 27.6837 74.0136 28.3145 73.9259C29.0829 73.8223 29.8279 73.5672 30.5225 73.1767C31.1298 72.838 31.7036 72.4275 32.2338 71.9333C32.6532 71.5507 33.0223 71.0924 33.3277 70.5704C33.6599 70.0005 33.9418 69.3948 34.1699 68.7571C34.3645 68.2191 34.4921 67.6612 34.5558 67.0833C34.6296 66.4298 34.6498 65.7603 34.6196 65.0987C34.5894 64.485 34.4753 63.8793 34.2773 63.3094C34.0458 62.6478 33.7304 62.0301 33.3378 61.4802C32.9619 60.9501 32.4989 60.5118 31.9855 60.185C31.4889 59.8702 30.952 59.643 30.3983 59.5115C29.8413 59.384 29.2641 59.4278 28.7239 59.635C28.0964 59.8741 27.5293 60.2966 27.0763 60.8665C26.6904 61.3686 26.4388 62.0102 26.375 62.6917C26.3012 63.4927 26.6166 64.2778 27.1904 64.7161C27.9689 65.3139 28.1904 66.5453 27.687 67.4699C27.1904 68.3825 26.167 68.6535 25.3885 68.0757C23.7342 66.8283 22.8182 64.5647 23.0363 62.2533C23.1806 60.7031 23.7443 59.2604 24.6436 58.1326C25.4858 57.0726 26.5394 56.2835 27.7072 55.8411C28.7877 55.4267 29.942 55.351 31.0593 55.614C31.9351 55.8172 32.7841 56.1759 33.5726 56.678C34.4619 57.2439 35.2504 57.9971 35.9047 58.9097C36.5255 59.7825 37.0255 60.7588 37.3912 61.8149C37.7268 62.7873 37.9248 63.8235 37.9785 64.8756C38.0254 65.7921 37.9952 66.7167 37.8912 67.6253C37.7872 68.5539 37.5758 69.4665 37.2637 70.3353C36.945 71.22 36.5524 72.0688 36.0893 72.8619C35.5893 73.7147 34.982 74.4719 34.2874 75.1055C33.5626 75.7711 32.7807 76.3369 31.9553 76.7992C30.9285 77.3691 29.8312 77.7397 28.7038 77.8952C27.8749 78.0028 27.0394 78.0267 26.2073 77.9709C25.2912 77.9031 24.3818 77.68 23.506 77.3133Z" fill="#04C3FF"/>
<path d="M53 38.7524C52.3608 38.6116 51.7184 38.5008 51.0729 38.4368V12H47.924V38.4453C47.2785 38.5136 46.6361 38.6202 46 38.7652C46.1606 40.1725 46.2928 41.5841 46.4031 43C48.4498 42.5053 50.5439 42.501 52.5938 42.9872C52.7072 41.5756 52.8394 40.164 53 38.7524Z" fill="#04C3FF"/>
</svg>
