<svg width="100" height="100" viewBox="0 0 100 100" fill="none" xmlns="http://www.w3.org/2000/svg">
<path d="M72.9851 27.0036C68.1581 26.8668 64.1362 30.7003 64.0036 35.5646C63.9373 37.9951 64.8686 40.343 66.5797 42.0577C70.9331 46.4098 70.9583 53.4947 66.6396 57.8786C66.6207 57.9008 66.6018 57.9231 66.5797 57.9422C63.1544 61.3717 63.1386 66.9518 66.5418 70.4004C68.2434 72.1278 70.5732 73.0663 72.9851 72.9963C84.1101 72.6782 93.1768 63.8881 93.9124 52.6961C94.0292 50.9019 94.0292 49.098 93.9124 47.3038C93.1737 36.1149 84.1101 27.3217 72.9851 27.0036ZM72.8904 30.1817C82.3927 30.449 90.1335 37.9569 90.7586 47.5169C90.866 49.1712 90.866 50.8319 90.7586 52.4894C90.1335 62.0461 82.3927 69.5573 72.8904 69.8245C69.806 69.9104 67.2363 67.464 67.1511 64.3526C67.1069 62.7969 67.7067 61.2922 68.8021 60.1978C74.3899 54.605 74.4215 45.5095 68.8716 39.8753C68.8495 39.853 68.8242 39.8276 68.8021 39.8053C66.6112 37.6165 66.5954 34.0502 68.7674 31.8456C69.8565 30.7385 71.3498 30.1372 72.8904 30.1817Z" fill="#FF61E6"/>
<path d="M27.0149 27.0033C15.8899 27.3215 6.82317 36.1116 6.0876 47.3037C5.9708 49.098 5.9708 50.9018 6.0876 52.6961C6.82317 63.8882 15.8867 72.6783 27.0149 72.9965C31.8419 73.1332 35.8638 69.2997 35.9964 64.4354C36.0627 62.0048 35.1314 59.657 33.4204 57.9422C29.0669 53.5901 29.0417 46.5052 33.3604 42.118C33.3793 42.099 33.3983 42.0767 33.4204 42.0576C36.8456 38.6281 36.8614 33.0479 33.4582 29.5993C31.7566 27.875 29.4268 26.9365 27.0149 27.0033ZM27.1096 30.1815C30.194 30.0956 32.7637 32.5421 32.8489 35.6535C32.8931 37.2092 32.2933 38.714 31.1979 39.8084C25.6101 45.4012 25.5785 54.4968 31.1284 60.131C31.1505 60.1532 31.1758 60.1787 31.1979 60.201C33.3888 62.3897 33.4046 65.9561 31.2326 68.1608C30.1466 69.2679 28.6534 69.8692 27.1096 69.8246C17.6073 69.5574 9.86646 62.0462 9.24138 52.4893C9.13405 50.8318 9.13405 49.1711 9.24138 47.5168C9.86646 37.9568 17.6073 30.4488 27.1096 30.1815Z" fill="#FF61E6"/>
<path d="M83.4976 58.629C82.9223 58.8269 82.3218 58.9506 81.7149 58.9846C81.1807 59.0156 80.6434 59.0001 80.1092 58.9352C79.3696 58.8547 78.649 58.6506 77.9726 58.3444C77.4384 58.097 76.9295 57.7938 76.4586 57.4412C75.9971 57.0917 75.5894 56.6711 75.2543 56.201C74.9509 55.7772 74.6949 55.3256 74.4894 54.8462C74.284 54.373 74.1417 53.8719 74.0722 53.3616C74.0058 52.8729 73.9837 52.378 74.0121 51.8862C74.0469 51.3017 74.1828 50.7264 74.4072 50.1882C74.6506 49.6067 74.9857 49.0747 75.3966 48.5984C75.8359 48.0911 76.3701 47.6674 76.9706 47.3581C77.4953 47.0828 78.0579 46.888 78.6427 46.7766C79.4107 46.6251 80.2041 46.6715 80.9468 46.9034C81.7402 47.154 82.4608 47.5994 83.0329 48.1901C83.6588 48.8396 84.0507 49.6717 84.1519 50.5593C84.3067 51.9172 83.6556 53.2472 82.4735 53.9833C81.7339 54.4349 80.7572 54.2122 80.2989 53.4853C79.8437 52.7708 80.0587 51.8337 80.7793 51.3728C80.9437 51.2707 81.0322 51.0852 81.0101 50.8965C80.9848 50.68 80.8899 50.4727 80.7351 50.315C80.5265 50.0985 80.2673 49.9408 79.9796 49.8511C79.7458 49.7799 79.4992 49.7675 79.2558 49.8139C78.9745 49.8696 78.7059 49.9624 78.4562 50.0923C78.2065 50.2253 77.9884 50.3985 77.805 50.6057C77.6059 50.8346 77.4479 51.0882 77.3309 51.3666C77.2361 51.5924 77.1824 51.8306 77.1666 52.0749C77.1476 52.3687 77.1603 52.6626 77.2013 52.9533C77.2361 53.1884 77.2993 53.4204 77.3973 53.6431C77.5174 53.9214 77.6691 54.1936 77.8493 54.4441C78.001 54.6514 78.1812 54.84 78.3898 54.9978C78.6774 55.2143 78.984 55.403 79.3127 55.5545C79.6762 55.7215 80.0682 55.8298 80.4664 55.8762C80.8141 55.9133 81.1649 55.9226 81.5158 55.9009C81.8319 55.8824 82.1416 55.8205 82.4387 55.7154C82.799 55.5916 83.1436 55.4277 83.4691 55.2298C83.801 55.0287 84.1044 54.7782 84.3636 54.4936C84.6734 54.1534 84.9515 53.7822 85.1854 53.3863C85.3782 53.0616 85.5236 52.709 85.6248 52.3471C85.7322 51.9512 85.8018 51.546 85.8302 51.1346C85.8555 50.7975 85.8334 50.4573 85.7702 50.1263C85.6848 49.6995 85.5647 49.285 85.4035 48.8799C85.2455 48.4778 85.04 48.1035 84.784 47.754C84.5501 47.4323 84.2941 47.1323 84.0191 46.8478C83.7283 46.5446 83.3996 46.2817 83.0393 46.0621C82.6347 45.8147 82.2048 45.6044 81.7623 45.4374C81.3483 45.2796 80.9121 45.1806 80.4727 45.1373C80.0113 45.094 79.5498 45.0817 79.0883 45.1002C78.6016 45.1188 78.118 45.2023 77.6502 45.3415C76.8126 45.5796 75.937 45.1095 75.6905 44.2899C75.4503 43.4826 75.9086 42.6382 76.7272 42.3815C77.451 42.165 78.2033 42.0413 78.9619 42.0134C79.5656 41.9856 80.1725 42.0011 80.7762 42.0598C81.5063 42.1279 82.2238 42.2949 82.9065 42.5516C83.5387 42.7929 84.1455 43.0898 84.7208 43.4424C85.3087 43.8012 85.8429 44.2311 86.317 44.7229C86.6899 45.1095 87.0376 45.5209 87.3537 45.9508C87.7677 46.5137 88.106 47.1261 88.3588 47.7726C88.5832 48.3479 88.7539 48.9355 88.874 49.5387C88.991 50.1356 89.0257 50.748 88.9815 51.3542C88.9372 51.9574 88.8361 52.5605 88.6749 53.1451C88.5042 53.773 88.2482 54.3699 87.9163 54.9328C87.5749 55.5143 87.1735 56.0556 86.7215 56.5536C86.2601 57.0577 85.7291 57.5 85.1412 57.8557C84.6196 58.1743 84.0697 58.4372 83.4944 58.6351L83.4976 58.629Z" fill="#FF61E6"/>
<path d="M16.5119 58.631C15.9334 58.433 15.3835 58.1732 14.8619 57.8577C14.274 57.499 13.743 57.0598 13.2816 56.5525C12.8264 56.0546 12.425 55.5102 12.0836 54.9349C11.7517 54.372 11.4957 53.7688 11.325 53.1441C11.167 52.5595 11.0627 51.9564 11.0184 51.3532C10.9742 50.7439 11.009 50.1346 11.1291 49.5377C11.2492 48.9376 11.423 48.3438 11.6474 47.7716C11.9003 47.1252 12.2385 46.5158 12.6526 45.9498C12.9718 45.5168 13.3163 45.1085 13.6893 44.7219C14.1634 44.2332 14.7007 43.8002 15.2855 43.4414C15.8607 43.0919 16.4676 42.7919 17.0998 42.5538C17.7825 42.2939 18.5 42.1269 19.227 42.0589C19.8307 42.0032 20.4344 41.9877 21.0412 42.0094C21.7998 42.0403 22.5521 42.1671 23.2759 42.3836C24.1072 42.6435 24.5655 43.5126 24.3 44.326C24.0377 45.1271 23.1748 45.5725 22.3498 45.3374C21.8852 45.1982 21.4016 45.1209 20.9148 45.1024C20.4533 45.0807 19.9919 45.0931 19.5304 45.1364C19.0879 45.1797 18.6549 45.2787 18.2408 45.4364C17.7951 45.6065 17.3684 45.8168 16.9639 46.0643C16.6067 46.2808 16.2748 46.5437 15.984 46.8437C15.709 47.1344 15.453 47.4345 15.2191 47.7561C14.9631 48.1025 14.7576 48.4799 14.5996 48.8789C14.4384 49.284 14.3183 49.7016 14.233 50.1253C14.1666 50.4594 14.1476 50.7996 14.1729 51.1367C14.2013 51.545 14.2709 51.9502 14.3783 52.3461C14.4763 52.708 14.6249 53.0575 14.8177 53.3853C15.0516 53.7812 15.3266 54.1524 15.6395 54.4957C15.9018 54.7802 16.2021 55.0277 16.534 55.2318C16.8596 55.4267 17.2009 55.5906 17.5612 55.7143C17.8615 55.8164 18.1713 55.8783 18.4873 55.8999C18.835 55.9216 19.1859 55.9154 19.5336 55.8752C19.935 55.8288 20.3238 55.7205 20.6904 55.5535C21.0191 55.4019 21.3289 55.2194 21.6133 55.0029C21.8188 54.8452 22.0021 54.6596 22.1507 54.4462C22.3308 54.1957 22.4794 53.9266 22.6027 53.642C22.6975 53.4255 22.7639 53.1936 22.7955 52.9585C22.8366 52.6678 22.8492 52.3739 22.8302 52.077C22.8144 51.8357 22.7607 51.5945 22.6627 51.3687C22.5489 51.0934 22.3877 50.8367 22.1918 50.6109C22.0084 50.4006 21.7904 50.2243 21.5407 50.0975C21.291 49.9645 21.0223 49.8717 20.741 49.816C20.5008 49.7666 20.2511 49.7789 20.0172 49.8501C19.7295 49.9398 19.4703 50.1037 19.2617 50.314C19.1069 50.4779 19.012 50.6821 18.9867 50.8986C18.9646 51.0872 19.0531 51.2697 19.2175 51.3687C19.9476 51.8327 20.1594 52.7946 19.6821 53.509C19.2143 54.2142 18.2535 54.4246 17.5202 53.9792C16.3443 53.2492 15.6932 51.9193 15.8481 50.5583C15.9492 49.6707 16.3412 48.8387 16.967 48.1891C17.5423 47.5953 18.2598 47.153 19.0531 46.9056C19.7959 46.6705 20.5893 46.6272 21.3573 46.7726C21.9421 46.887 22.5047 47.088 23.0294 47.3571C23.6299 47.6726 24.1609 48.0902 24.6034 48.5943C25.0175 49.0706 25.3494 49.6088 25.5928 50.1872C25.8203 50.7285 25.9531 51.3007 25.9879 51.8852C26.0163 52.377 25.9942 52.8688 25.9278 53.3575C25.8614 53.8709 25.7192 54.372 25.5106 54.8483C25.3051 55.3215 25.0491 55.7793 24.7457 56.203C24.4138 56.6731 24.0061 57.0907 23.5414 57.4402C23.0736 57.7959 22.5647 58.099 22.0274 58.3433C21.351 58.6557 20.6303 58.8537 19.8907 58.9372C19.3566 58.9991 18.8192 59.0145 18.2851 58.9867C17.6782 58.9465 17.0776 58.8289 16.5024 58.631H16.5119Z" fill="#FF61E6"/>
<path d="M66.371 46.9406C66.7965 47.9312 67.0092 49 66.9997 50.0812C62.1159 52.1281 56.8923 53.2781 51.5861 53.4688V75H48.4107V53.4656C43.1077 53.275 37.8841 52.125 33.0003 50.0781C32.9908 48.9969 33.2035 47.9281 33.629 46.9375C38.2938 48.9844 43.3109 50.1375 48.4107 50.3406V25H51.5861V50.3406C56.6891 50.1406 61.7094 48.9875 66.371 46.9406Z" fill="#FF61E6"/>
</svg>
